<?xml version="1.0" encoding="UTF-8" standalone="no"?>
<!DOCTYPE svg PUBLIC "-//W3C//DTD SVG 1.1//EN" "http://www.w3.org/Graphics/SVG/1.1/DTD/svg11.dtd">
<!-- Generated by Microsoft Visio, SVG Export VanderHeiden2017_Flowchart.svg Page-1 -->
<svg xmlns="http://www.w3.org/2000/svg" xmlns:xlink="http://www.w3.org/1999/xlink" xmlns:ev="http://www.w3.org/2001/xml-events"
		width="5.1821in" height="6.12153in" viewBox="0 0 373.111 440.75" xml:space="preserve" color-interpolation-filters="sRGB"
		class="st21">
	<style type="text/css">
	<![CDATA[
		.st1 {visibility:visible}
		.st2 {fill:none;filter:url(#filter_2.6666667461395);marker-end:url(#mrkr5-8);stroke:#000000;stroke-linecap:round;stroke-linejoin:round;stroke-opacity:0.4}
		.st3 {fill:#000000;fill-opacity:0.4;stroke:#000000;stroke-opacity:0.4;stroke-width:0.37313432835821}
		.st4 {marker-end:url(#mrkr5-14);stroke:#000000;stroke-linecap:round;stroke-linejoin:round;stroke-width:1.5}
		.st5 {fill:#000000;fill-opacity:1;stroke:#000000;stroke-opacity:1;stroke-width:0.37313432835821}
		.st6 {fill:none;filter:url(#filter_2.6666667461395);marker-end:url(#mrkr5-154);stroke:#000000;stroke-dasharray:0.75,1.5;stroke-linecap:round;stroke-linejoin:round;stroke-opacity:0.4}
		.st7 {fill:#000000;fill-opacity:0.4;stroke:#000000;stroke-opacity:0.4;stroke-width:0.22935779816514}
		.st8 {marker-end:url(#mrkr5-160);stroke:#000000;stroke-dasharray:0.75,1.5;stroke-linecap:round;stroke-linejoin:round;stroke-width:0.75}
		.st9 {fill:#000000;fill-opacity:1;stroke:#000000;stroke-opacity:1;stroke-width:0.22935779816514}
		.st10 {fill:#000000;fill-opacity:0.4;filter:url(#filter_2.6666667461395);stroke:#000000;stroke-linecap:round;stroke-linejoin:round;stroke-opacity:0.4}
		.st11 {fill:#ff2766;stroke:#000000;stroke-linecap:round;stroke-linejoin:round;stroke-width:0.24}
		.st12 {fill:#000000;font-family:Arial;font-size:0.916672em}
		.st13 {fill:#2980b9;stroke:#000000;stroke-linecap:round;stroke-linejoin:round;stroke-width:0.24}
		.st14 {fill:#000000;font-family:Arial;font-size:0.666664em}
		.st15 {fill:#d8d8d8;stroke:#000000;stroke-linecap:round;stroke-linejoin:round;stroke-width:0.24}
		.st16 {fill:#000000;font-family:Arial;font-size:1.00001em;font-weight:bold}
		.st17 {font-size:0.666659em;font-style:italic;font-weight:normal}
		.st18 {fill:#22c476;stroke:#000000;stroke-linecap:round;stroke-linejoin:round;stroke-width:0.24}
		.st19 {fill:#ffa22c;stroke:#000000;stroke-linecap:round;stroke-linejoin:round;stroke-width:0.24}
		.st20 {font-size:0.666659em;font-weight:normal}
		.st21 {fill:none;fill-rule:evenodd;font-size:12px;overflow:visible;stroke-linecap:square;stroke-miterlimit:3}
	]]>
	</style>

	<defs id="Markers">
		<g id="lend5">
			<path d="M 2 1 L 0 0 L 1.98117 -0.993387 C 1.67173 -0.364515 1.67301 0.372641 1.98465 1.00043 " style="stroke:none"/>
		</g>
		<marker id="mrkr5-8" class="st3" refX="-4.69" orient="auto" markerUnits="strokeWidth" overflow="visible">
			<use xlink:href="#lend5" transform="scale(-2.68,-2.68) "/>
		</marker>
		<marker id="mrkr5-14" class="st5" refX="-4.69" orient="auto" markerUnits="strokeWidth" overflow="visible">
			<use xlink:href="#lend5" transform="scale(-2.68,-2.68) "/>
		</marker>
		<marker id="mrkr5-154" class="st7" refX="-7.63" orient="auto" markerUnits="strokeWidth" overflow="visible">
			<use xlink:href="#lend5" transform="scale(-4.36,-4.36) "/>
		</marker>
		<marker id="mrkr5-160" class="st9" refX="-7.63" orient="auto" markerUnits="strokeWidth" overflow="visible">
			<use xlink:href="#lend5" transform="scale(-4.36,-4.36) "/>
		</marker>
	</defs>
	<defs id="Filters">
		<filter id="filter_2.6666667461395">
			<feGaussianBlur stdDeviation="2.6666667461395"/>
		</filter>
	</defs>
	<g>
		<title>Page-1</title>
		<g id="shape80-1" transform="translate(279.99,-403.059)">
			<title>Dynamic connector.80</title>
			<g id="shadow80-2" transform="matrix(1,0,0,1,2.12132,2.12132)" class="st1">
				<path d="M9 441.31 L9 451.15" class="st2"/>
			</g>
			<path d="M9 441.31 L9 451.15" class="st4"/>
		</g>
		<g id="shape81-15" transform="translate(70.8787,-403.059)">
			<title>Dynamic connector.81</title>
			<g id="shadow81-16" transform="matrix(1,0,0,1,2.12132,2.12132)" class="st1">
				<path d="M9 441.31 L9 451.15" class="st2"/>
			</g>
			<path d="M9 441.31 L9 451.15" class="st4"/>
		</g>
		<g id="shape75-27" transform="translate(174.521,-211.246)">
			<title>Dynamic connector.75</title>
			<g id="shadow75-28" transform="matrix(1,0,0,1,2.12132,2.12132)" class="st1">
				<path d="M9 441.88 L9 450.59" class="st2"/>
			</g>
			<path d="M9 441.88 L9 450.59" class="st4"/>
		</g>
		<g id="shape74-39" transform="translate(174.521,-172.996)">
			<title>Dynamic connector.74</title>
			<g id="shadow74-40" transform="matrix(1,0,0,1,2.12132,2.12132)" class="st1">
				<path d="M9 441.88 L9 450.59" class="st2"/>
			</g>
			<path d="M9 441.88 L9 450.59" class="st4"/>
		</g>
		<g id="shape73-51" transform="translate(174.521,-211.246)">
			<title>Dynamic connector.73</title>
			<g id="shadow73-52" transform="matrix(1,0,0,1,2.12132,2.12132)" class="st1">
				<path d="M9 441.88 L9 450.59" class="st2"/>
			</g>
			<path d="M9 441.88 L9 450.59" class="st4"/>
		</g>
		<g id="shape71-63" transform="translate(183.521,-286.621)">
			<title>Dynamic connector.71</title>
			<g id="shadow71-64" transform="matrix(1,0,0,1,2.12132,2.12132)" class="st1">
				<path d="M0 440.75 L0 447.95 L-103.64 447.95 L-103.64 455.09" class="st2"/>
			</g>
			<path d="M0 440.75 L0 447.95 L-103.64 447.95 L-103.64 455.09" class="st4"/>
		</g>
		<g id="shape72-75" transform="translate(183.521,-286.621)">
			<title>Dynamic connector.72</title>
			<g id="shadow72-76" transform="matrix(1,0,0,1,2.12132,2.12132)" class="st1">
				<path d="M0 440.75 L0 447.95 L105.46 447.95 L105.46 455.09" class="st2"/>
			</g>
			<path d="M0 440.75 L0 447.95 L105.46 447.95 L105.46 455.09" class="st4"/>
		</g>
		<g id="shape67-87" transform="translate(288.986,-242.746)">
			<title>Dynamic connector.67</title>
			<g id="shadow67-88" transform="matrix(1,0,0,1,2.12132,2.12132)" class="st1">
				<path d="M0 440.75 L0 462.13 L-32.13 462.13" class="st2"/>
			</g>
			<path d="M0 440.75 L0 462.13 L-32.13 462.13" class="st4"/>
		</g>
		<g id="shape68-99" transform="translate(79.8787,-242.746)">
			<title>Dynamic connector.68</title>
			<g id="shadow68-100" transform="matrix(1,0,0,1,2.12132,2.12132)" class="st1">
				<path d="M0 440.75 L0 462.13 L30.3 462.13" class="st2"/>
			</g>
			<path d="M0 440.75 L0 462.13 L30.3 462.13" class="st4"/>
		</g>
		<g id="shape59-111" transform="translate(279.99,-363.684)">
			<title>Dynamic connector.59</title>
			<g id="shadow59-112" transform="matrix(1,0,0,1,2.12132,2.12132)" class="st1">
				<path d="M9 441.31 L9 451.15" class="st2"/>
			</g>
			<path d="M9 441.31 L9 451.15" class="st4"/>
		</g>
		<g id="shape47-123" transform="translate(174.521,-96.4963)">
			<title>Dynamic connector.47</title>
			<g id="shadow47-124" transform="matrix(1,0,0,1,2.12132,2.12132)" class="st1">
				<path d="M9 441.88 L9 450.59" class="st2"/>
			</g>
			<path d="M9 441.88 L9 450.59" class="st4"/>
		</g>
		<g id="shape48-135" transform="translate(192.486,-58.8088)">
			<title>Dynamic connector.48</title>
			<g id="shadow48-136" transform="matrix(1,0,0,1,2.12132,2.12132)" class="st1">
				<path d="M-8.96 442.44 L-8.96 449.19 L-9.04 449.19 L-9.04 450.03" class="st2"/>
			</g>
			<path d="M-8.96 442.44 L-8.96 449.19 L-9.04 449.19 L-9.04 450.03" class="st4"/>
		</g>
		<g id="shape32-147" transform="translate(143.37,-325.996)">
			<title>Dynamic connector.32</title>
			<g id="shadow32-148" transform="matrix(1,0,0,1,2.12132,2.12132)" class="st1">
				<path d="M0.56 431.75 L11.71 431.75" class="st6"/>
			</g>
			<path d="M0.56 431.75 L11.71 431.75" class="st8"/>
		</g>
		<g id="shape24-161" transform="translate(254.325,-15.4963)">
			<title>Dynamic connector.24</title>
			<g id="shadow24-162" transform="matrix(1,0,0,1,2.12132,2.12132)" class="st1">
				<path d="M2.25 431.75 L10.03 431.75" class="st6"/>
			</g>
			<path d="M2.25 431.75 L10.03 431.75" class="st8"/>
		</g>
		<g id="shape27-173" transform="translate(223.247,-325.996)">
			<title>Dynamic connector.27</title>
			<g id="shadow27-174" transform="matrix(1,0,0,1,2.12132,2.12132)" class="st1">
				<path d="M-0.56 431.75 L-11.72 431.75" class="st6"/>
			</g>
			<path d="M-0.56 431.75 L-11.72 431.75" class="st8"/>
		</g>
		<g id="shape18-185" transform="translate(288.99,-323.746)">
			<title>Dynamic connector.18</title>
			<g id="shadow18-186" transform="matrix(1,0,0,1,2.12132,2.12132)" class="st1">
				<path d="M0 440.75 L0 466.63 L-32.13 466.63" class="st2"/>
			</g>
			<path d="M0 440.75 L0 466.63 L-32.13 466.63" class="st4"/>
		</g>
		<g id="shape23-197" transform="translate(174.521,-134.746)">
			<title>Dynamic connector.23</title>
			<g id="shadow23-198" transform="matrix(1,0,0,1,2.12132,2.12132)" class="st1">
				<path d="M9 441.88 L9 450.59" class="st2"/>
			</g>
			<path d="M9 441.88 L9 450.59" class="st4"/>
		</g>
		<g id="shape28-209" transform="translate(79.8787,-323.746)">
			<title>Dynamic connector.28</title>
			<g id="shadow28-210" transform="matrix(1,0,0,1,2.12132,2.12132)" class="st1">
				<path d="M0 440.75 L0 466.63 L30.3 466.63" class="st2"/>
			</g>
			<path d="M0 440.75 L0 466.63 L30.3 466.63" class="st4"/>
		</g>
		<g id="shape37-221" transform="translate(70.8787,-363.684)">
			<title>Dynamic connector.37</title>
			<g id="shadow37-222" transform="matrix(1,0,0,1,2.12132,2.12132)" class="st1">
				<path d="M9 441.31 L9 451.15" class="st2"/>
			</g>
			<path d="M9 441.31 L9 451.15" class="st4"/>
		</g>
		<g id="shape5-233" transform="translate(222.686,-323.746)">
			<title>Process.5</title>
			<desc>MaskPrimers score</desc>
			<g id="shadow5-234" transform="matrix(1,0,0,1,2.12132,2.12132)" class="st1">
				<rect x="0" y="418.25" width="132.607" height="22.5" class="st10"/>
			</g>
			<rect x="0" y="418.25" width="132.607" height="22.5" class="st11"/>
			<text x="19.24" y="432.8" class="st12">MaskPrimers score</text>		</g>
		<g id="shape8-239" transform="translate(117.218,-95.3713)">
			<title>Process.8</title>
			<desc>CollapseSeq</desc>
			<g id="shadow8-240" transform="matrix(1,0,0,1,2.12132,2.12132)" class="st1">
				<rect x="0" y="418.25" width="132.607" height="22.5" class="st10"/>
			</g>
			<rect x="0" y="418.25" width="132.607" height="22.5" class="st13"/>
			<text x="35.12" y="432.8" class="st12">CollapseSeq</text>		</g>
		<g id="shape10-245" transform="translate(15.825,-323.746)">
			<title>Process.10</title>
			<desc>MaskPrimers score</desc>
			<g id="shadow10-246" transform="matrix(1,0,0,1,2.12132,2.12132)" class="st1">
				<rect x="0" y="418.25" width="128.107" height="22.5" class="st10"/>
			</g>
			<rect x="0" y="418.25" width="128.107" height="22.5" class="st11"/>
			<text x="16.99" y="432.8" class="st12">MaskPrimers score</text>		</g>
		<g id="shape14-251" transform="translate(117.218,-133.621)">
			<title>Process.14</title>
			<desc>ParseHeaders collapse</desc>
			<g id="shadow14-252" transform="matrix(1,0,0,1,2.12132,2.12132)" class="st1">
				<rect x="0" y="418.25" width="132.607" height="22.5" class="st10"/>
			</g>
			<rect x="0" y="418.25" width="132.607" height="22.5" class="st13"/>
			<text x="9.44" y="432.8" class="st12">ParseHeaders collapse</text>		</g>
		<g id="shape34-257" transform="translate(160.807,-329.371)">
			<title>Start/End.34</title>
			<desc>ParseLog</desc>
			<g id="shadow34-258" transform="matrix(1,0,0,1,2.12132,2.12132)" class="st1">
				<path d="M5.63 440.75 L39.37 440.75 A5.625 5.625 -180 0 0 39.37 429.5 L5.63 429.5 A5.625 5.625 -180 1 0 5.63 440.75
							 Z" class="st10"/>
			</g>
			<path d="M5.63 440.75 L39.37 440.75 A5.625 5.625 -180 0 0 39.37 429.5 L5.63 429.5 A5.625 5.625 -180 1 0 5.63 440.75 Z"
					class="st11"/>
			<text x="5.38" y="437.52" class="st14">ParseLog</text>		</g>
		<g id="shape44-263" transform="translate(117.218,-57.1213)">
			<title>Process.44</title>
			<desc>SplitSeq group</desc>
			<g id="shadow44-264" transform="matrix(1,0,0,1,2.12132,2.12132)" class="st1">
				<rect x="0" y="418.25" width="132.607" height="22.5" class="st10"/>
			</g>
			<rect x="0" y="418.25" width="132.607" height="22.5" class="st13"/>
			<text x="30.22" y="432.8" class="st12">SplitSeq group</text>		</g>
		<g id="shape45-269" transform="translate(270.075,-18.8713)">
			<title>Start/End.45</title>
			<desc>ParseHeaders table</desc>
			<g id="shadow45-270" transform="matrix(1,0,0,1,2.12132,2.12132)" class="st1">
				<path d="M5.63 440.75 L75.37 440.75 A5.625 5.625 -180 0 0 75.37 429.5 L5.63 429.5 A5.625 5.625 -180 1 0 5.63 440.75
							 Z" class="st10"/>
			</g>
			<path d="M5.63 440.75 L75.37 440.75 A5.625 5.625 -180 0 0 75.37 429.5 L5.63 429.5 A5.625 5.625 -180 1 0 5.63 440.75 Z"
					class="st13"/>
			<text x="5.15" y="437.52" class="st14">ParseHeaders table</text>		</g>
		<g id="shape46-275" transform="translate(105.825,-6.49632)">
			<title>External Data.46</title>
			<desc>Final Repertoire FASTQ</desc>
			<g id="shadow46-276" transform="matrix(1,0,0,1,2.12132,2.12132)" class="st1">
				<path d="M4.5 404.75 L155.25 404.75 A38.25 38.25 -180 0 0 155.25 440.75 L4.5 440.75 A38.25 38.25 0 0 1 4.5 404.75
							 Z" class="st10"/>
			</g>
			<path d="M4.5 404.75 L155.25 404.75 A38.25 38.25 -180 0 0 155.25 440.75 L4.5 440.75 A38.25 38.25 0 0 1 4.5 404.75 Z"
					class="st15"/>
			<text x="31.95" y="421.54" class="st16">Final Repertoire <tspan x="64.29" dy="1.352em" class="st17">FASTQ</tspan></text>		</g>
		<g id="shape49-282" transform="translate(143.37,-365.371)">
			<title>Dynamic connector.49</title>
			<g id="shadow49-283" transform="matrix(1,0,0,1,2.12132,2.12132)" class="st1">
				<path d="M0.56 431.75 L11.71 431.75" class="st6"/>
			</g>
			<path d="M0.56 431.75 L11.71 431.75" class="st8"/>
		</g>
		<g id="shape50-294" transform="translate(15.825,-363.121)">
			<title>Process.50</title>
			<desc>FilterSeq quality</desc>
			<g id="shadow50-295" transform="matrix(1,0,0,1,2.12132,2.12132)" class="st1">
				<rect x="0" y="418.25" width="128.107" height="22.5" class="st10"/>
			</g>
			<rect x="0" y="418.25" width="128.107" height="22.5" class="st11"/>
			<text x="24.62" y="432.8" class="st12">FilterSeq quality</text>		</g>
		<g id="shape52-300" transform="translate(246.941,-174.121)">
			<title>Dynamic connector.41</title>
			<g id="shadow52-301" transform="matrix(1,0,0,1,2.12132,2.12132)" class="st1">
				<path d="M2.88 431.75 L9.39 431.75" class="st6"/>
			</g>
			<path d="M2.88 431.75 L9.39 431.75" class="st8"/>
		</g>
		<g id="shape53-312" transform="translate(117.218,-171.871)">
			<title>Process.9</title>
			<desc>AssemblePairs sequential</desc>
			<g id="shadow53-313" transform="matrix(1,0,0,1,2.12132,2.12132)" class="st1">
				<rect x="0" y="418.25" width="132.607" height="22.5" class="st10"/>
			</g>
			<rect x="0" y="418.25" width="132.607" height="22.5" class="st18"/>
			<text x="3.02" y="432.8" class="st12">AssemblePairs sequential</text>		</g>
		<g id="shape54-318" transform="translate(262.057,-177.496)">
			<title>Start/End.40</title>
			<desc>ParseLog</desc>
			<g id="shadow54-319" transform="matrix(1,0,0,1,2.12132,2.12132)" class="st1">
				<path d="M5.63 440.75 L39.37 440.75 A5.625 5.625 -180 0 0 39.37 429.5 L5.63 429.5 A5.625 5.625 -180 1 0 5.63 440.75
							 Z" class="st10"/>
			</g>
			<path d="M5.63 440.75 L39.37 440.75 A5.625 5.625 -180 0 0 39.37 429.5 L5.63 429.5 A5.625 5.625 -180 1 0 5.63 440.75 Z"
					class="st18"/>
			<text x="5.38" y="437.52" class="st14">ParseLog</text>		</g>
		<g id="shape56-324" transform="translate(223.247,-365.371)">
			<title>Dynamic connector.56</title>
			<g id="shadow56-325" transform="matrix(1,0,0,1,2.12132,2.12132)" class="st1">
				<path d="M-0.56 431.75 L-11.72 431.75" class="st6"/>
			</g>
			<path d="M-0.56 431.75 L-11.72 431.75" class="st8"/>
		</g>
		<g id="shape57-336" transform="translate(222.686,-363.121)">
			<title>Process.57</title>
			<desc>FilterSeq quality</desc>
			<g id="shadow57-337" transform="matrix(1,0,0,1,2.12132,2.12132)" class="st1">
				<rect x="0" y="418.25" width="132.607" height="22.5" class="st10"/>
			</g>
			<rect x="0" y="418.25" width="132.607" height="22.5" class="st11"/>
			<text x="26.87" y="432.8" class="st12">FilterSeq quality</text>		</g>
		<g id="shape58-342" transform="translate(160.807,-368.746)">
			<title>Start/End.58</title>
			<desc>ParseLog</desc>
			<g id="shadow58-343" transform="matrix(1,0,0,1,2.12132,2.12132)" class="st1">
				<path d="M5.63 440.75 L39.37 440.75 A5.625 5.625 -180 0 0 39.37 429.5 L5.63 429.5 A5.625 5.625 -180 1 0 5.63 440.75
							 Z" class="st10"/>
			</g>
			<path d="M5.63 440.75 L39.37 440.75 A5.625 5.625 -180 0 0 39.37 429.5 L5.63 429.5 A5.625 5.625 -180 1 0 5.63 440.75 Z"
					class="st11"/>
			<text x="5.38" y="437.52" class="st14">ParseLog</text>		</g>
		<g id="shape60-348" transform="translate(117.218,-286.621)">
			<title>Process.60</title>
			<desc>PairSeq</desc>
			<g id="shadow60-349" transform="matrix(1,0,0,1,2.12132,2.12132)" class="st1">
				<rect x="0" y="418.25" width="132.607" height="22.5" class="st10"/>
			</g>
			<rect x="0" y="418.25" width="132.607" height="22.5" class="st19"/>
			<text x="46.74" y="432.8" class="st12">PairSeq</text>		</g>
		<g id="shape62-354" transform="translate(143.37,-244.996)">
			<title>Dynamic connector.62</title>
			<g id="shadow62-355" transform="matrix(1,0,0,1,2.12132,2.12132)" class="st1">
				<path d="M0.56 431.75 L11.71 431.75" class="st6"/>
			</g>
			<path d="M0.56 431.75 L11.71 431.75" class="st8"/>
		</g>
		<g id="shape63-366" transform="translate(223.245,-244.996)">
			<title>Dynamic connector.63</title>
			<g id="shadow63-367" transform="matrix(1,0,0,1,2.12132,2.12132)" class="st1">
				<path d="M-0.56 431.75 L-11.72 431.75" class="st6"/>
			</g>
			<path d="M-0.56 431.75 L-11.72 431.75" class="st8"/>
		</g>
		<g id="shape64-378" transform="translate(222.682,-242.746)">
			<title>Process.64</title>
			<desc>BuildConsensus</desc>
			<g id="shadow64-379" transform="matrix(1,0,0,1,2.12132,2.12132)" class="st1">
				<rect x="0" y="418.25" width="132.607" height="22.5" class="st10"/>
			</g>
			<rect x="0" y="418.25" width="132.607" height="22.5" class="st19"/>
			<text x="26.56" y="432.8" class="st12">BuildConsensus</text>		</g>
		<g id="shape65-384" transform="translate(15.825,-242.746)">
			<title>Process.65</title>
			<desc>BuildConsensus</desc>
			<g id="shadow65-385" transform="matrix(1,0,0,1,2.12132,2.12132)" class="st1">
				<rect x="0" y="418.25" width="128.107" height="22.5" class="st10"/>
			</g>
			<rect x="0" y="418.25" width="128.107" height="22.5" class="st19"/>
			<text x="24.31" y="432.8" class="st12">BuildConsensus</text>		</g>
		<g id="shape66-390" transform="translate(160.807,-248.371)">
			<title>Start/End.66</title>
			<desc>ParseLog</desc>
			<g id="shadow66-391" transform="matrix(1,0,0,1,2.12132,2.12132)" class="st1">
				<path d="M5.63 440.75 L39.37 440.75 A5.625 5.625 -180 0 0 39.37 429.5 L5.63 429.5 A5.625 5.625 -180 1 0 5.63 440.75
							 Z" class="st10"/>
			</g>
			<path d="M5.63 440.75 L39.37 440.75 A5.625 5.625 -180 0 0 39.37 429.5 L5.63 429.5 A5.625 5.625 -180 1 0 5.63 440.75 Z"
					class="st19"/>
			<text x="5.38" y="437.52" class="st14">ParseLog</text>		</g>
		<g id="shape69-396" transform="translate(117.218,-210.121)">
			<title>Process.69</title>
			<desc>PairSeq</desc>
			<g id="shadow69-397" transform="matrix(1,0,0,1,2.12132,2.12132)" class="st1">
				<rect x="0" y="418.25" width="132.607" height="22.5" class="st10"/>
			</g>
			<rect x="0" y="418.25" width="132.607" height="22.5" class="st18"/>
			<text x="46.74" y="432.8" class="st12">PairSeq</text>		</g>
		<g id="shape76-402" transform="translate(211.365,-402.496)">
			<title>External Data.76</title>
			<desc>Read 2 UMI, TS Site FASTQ</desc>
			<g id="shadow76-403" transform="matrix(1,0,0,1,2.12132,2.12132)" class="st1">
				<path d="M4.5 404.75 L155.25 404.75 A38.25 38.25 -180 0 0 155.25 440.75 L4.5 440.75 A38.25 38.25 0 0 1 4.5 404.75
							 Z" class="st10"/>
			</g>
			<path d="M4.5 404.75 L155.25 404.75 A38.25 38.25 -180 0 0 155.25 440.75 L4.5 440.75 A38.25 38.25 0 0 1 4.5 404.75 Z"
					class="st15"/>
			<text x="57.95" y="416.74" class="st16">Read 2 <tspan x="54.96" dy="1.35em" class="st20">UMI</tspan><tspan class="st20">, </tspan><tspan
						class="st20">TS Site </tspan><tspan x="64.29" dy="1.202em" class="st17">FASTQ</tspan></text>		</g>
		<g id="shape78-412" transform="translate(2.25368,-402.496)">
			<title>External Data.78</title>
			<desc>Read 1 C-Region Primer FASTQ</desc>
			<g id="shadow78-413" transform="matrix(1,0,0,1,2.12132,2.12132)" class="st1">
				<path d="M4.5 404.75 L155.25 404.75 A38.25 38.25 -180 0 0 155.25 440.75 L4.5 440.75 A38.25 38.25 0 0 1 4.5 404.75
							 Z" class="st10"/>
			</g>
			<path d="M4.5 404.75 L155.25 404.75 A38.25 38.25 -180 0 0 155.25 440.75 L4.5 440.75 A38.25 38.25 0 0 1 4.5 404.75 Z"
					class="st15"/>
			<text x="57.95" y="416.74" class="st16">Read 1 <tspan x="47.84" dy="1.35em" class="st20">C</tspan><tspan class="st20">-</tspan><tspan
						class="st20">Region Primer </tspan><tspan x="64.29" dy="1.202em" class="st17">FASTQ</tspan></text>		</g>
	</g>
</svg>
